<?xml version="1.0" standalone="no"?>
<!DOCTYPE svg PUBLIC "-//W3C//DTD SVG 20010904//EN"
 "http://www.w3.org/TR/2001/REC-SVG-20010904/DTD/svg10.dtd">
<svg version="1.0" xmlns="http://www.w3.org/2000/svg"
 width="500.000000pt" height="500.000000pt" viewBox="0 0 500.000000 500.000000"
 preserveAspectRatio="xMidYMid meet">
<metadata>
Created by potrace 1.15, written by Peter Selinger 2001-2017
</metadata>
<g transform="translate(0.000000,500.000000) scale(0.100000,-0.100000)"
fill="#000000" stroke="none">
<path d="M0 2500 l0 -2500 2500 0 2500 0 0 2500 0 2500 -2500 0 -2500 0 0
-2500z m2610 1299 c303 -48 521 -292 547 -611 l6 -78 -226 0 -227 0 -4 23 c-3
12 -7 45 -11 74 -15 136 -96 219 -225 230 -164 15 -280 -92 -280 -256 0 -139
112 -236 417 -359 325 -132 484 -295 538 -554 31 -144 11 -324 -47 -448 -38
-78 -129 -177 -210 -226 -125 -76 -281 -110 -470 -101 -148 6 -223 25 -344 82
-199 96 -318 242 -374 459 -11 44 -20 105 -20 138 l0 58 229 0 228 0 6 -81 c9
-137 70 -232 170 -266 117 -40 253 -25 317 36 95 91 91 312 -8 406 -46 43
-144 100 -236 137 -405 164 -589 335 -642 598 -30 148 -2 319 72 441 54 90
159 181 266 233 109 52 163 66 278 75 96 7 155 5 250 -10z"/>
</g>
</svg>
